<svg xmlns="http://www.w3.org/2000/svg" viewBox="0 0 24 24" width="24" height="24">
  <path d="M2.6,10.59L8.38,4.8l1.69,1.7c-0.24,0.85,0.15,1.78,0.93,2.23v5.54c-0.6,0.34-1,0.99-1,1.73c0,1.1,0.9,2,2,2 c1.1,0,2-0.9,2-2c0-0.74-0.4-1.39-1-1.73V9.41l2.07,2.09c-0.07,0.15-0.07,0.32-0.07,0.5c0,1.1,0.9,2,2,2c1.1,0,2-0.9,2-2 c0-1.1-0.9-2-2-2c-0.18,0-0.35,0-0.5,0.07L13.93,7.5C14.23,6.97,14.17,6.27,13.7,5.8l-1.7-1.69L18.4,10.5l-0.01,0.01 c0.17,0.17,0.31,0.38,0.4,0.61c0.34,0.9,0.06,1.82-0.59,2.39l-5.19,5.19C12.24,19.37,11.12,20,10,20c-2.2,0-4-1.8-4-4 c0-1.12,0.63-2.24,1.5-3L2.6,10.59z"/>
</svg>